# AST/ASF file generated using VICON BodyLanguage
# -----------------------------------------------
:version 1.10
:name VICON
:units
  mass 1.0
  length 0.45
  angle deg
:documentation
   .ast/.asf automatically generated from VICON data using
   VICON BodyBuilder and BodyLanguage model FoxedUp or BRILLIANT.MOD
:root
   order TX TY TZ RX RY RZ
   axis XYZ
   position 0 0 0  
   orientation 0 0 0 
:bonedata
  begin
     id 1 
     name lhipjoint
     direction 0.612567 -0.751349 0.245431 
     length 2.42285 
     axis 0 0 0  XYZ
  end
  begin
     id 2 
     name lfemur
     direction 0.34202 -0.939693 0  
     length 7.11304  
     axis 0 0 20  XYZ
    dof rx ry rz
    limits (-160.0 20.0)
           (-70.0 70.0)
           (-60.0 70.0)
  end
  begin
     id 3 
     name ltibia
     direction 0.34202 -0.939693 0   
     length 7.84529   
     axis 0 0 20   XYZ
    dof rx
    limits (-10.0 170.0)
  end
  begin
     id 4 
     name lfoot
     direction 0.0779239 -0.214094 0.9737   
     length 1.97176   
     axis -90 7.62852e-016 20   XYZ
    dof rx rz
    limits (-45.0 90.0)
           (-70.0 20.0)
  end
  begin
     id 5 
     name ltoes
     direction 1.53565e-011 -4.21709e-011 1   
     length 0.993197   
     axis -90 7.62852e-016 20   XYZ
    dof rx
    limits (-90.0 20.0)
  end
  begin
     id 6 
     name rhipjoint
     direction -0.665722 -0.709315 0.231701   
     length 2.56642  
     axis 0 0 0  XYZ 
  end
  begin
     id 7 
     name rfemur
     direction -0.34202 -0.939693 0   
     length 7.32108   
     axis 0 0 -20   XYZ
    dof rx ry rz
    limits (-160.0 20.0)
           (-70.0 70.0)
           (-70.0 60.0)
  end
  begin
     id 8 
     name rtibia
     direction -0.34202 -0.939693 0   
     length 7.81254   
     axis 0 0 -20   XYZ
    dof rx
    limits (-10.0 170.0)
 end
 begin
     id 9 
     name rfoot
     direction -0.0832806 -0.228812 0.969902   
     length 2.08278  
     axis -90 -7.62852e-016 -20   XYZ
    dof rx rz
    limits (-45.0 90.0)
           (-20.0 70.0)
  end
  begin
     id 10 
     name rtoes
     direction -1.53589e-011 -4.22086e-011 1   
     length 1.04609   
     axis -90 -7.62852e-016 -20   XYZ
    dof rx
    limits (-90.0 20.0)
  end
  begin
     id 11 
     name lowerback
     direction -0.00506013 0.988403 -0.151766   
     length 2.01978   
     axis 0 0 0   XYZ
    dof rx ry rz
    limits (-20.0 45.0)
           (-30.0 30.0)
           (-30.0 30.0)
  end
  begin
     id 12 
     name upperback
     direction -0.00836389 0.99968 0.0238859   
     length 2.01276   
     axis 0 0 0   XYZ
    dof rx ry rz
    limits (-20.0 45.0)
           (-30.0 30.0)
           (-30.0 30.0)
  end
  begin
     id 13 
     name thorax
     direction -0.00684136 0.995386 0.0957043   
     length 2.07303   
     axis 0 0 0   XYZ
    dof rx ry rz
    limits (-20.0 45.0)
           (-30.0 30.0)
           (-30.0 30.0)
  end
  begin
     id 14 
     name lowerneck
     direction -0.0161045 0.999661 0.0204485   
     length 1.91243   
     axis 0 0 0   XYZ
    dof rx ry rz
    limits (-20.0 45.0)
           (-30.0 30.0)
           (-30.0 30.0)
  end
  begin
     id 15 
     name upperneck
     direction 0.0553583 0.990946 -0.122319   
     length 1.91574   
     axis 0 0 0   XYZ
    dof rx ry rz
    limits (-20.0 45.0)
           (-30.0 30.0)
           (-30.0 30.0)
  end
  begin
     id 16
     name head
     direction 0.0180273 0.998839 -0.0446756  
     length 1.92693  
     axis 0 0 0   XYZ
    dof rx ry rz
    limits (-20.0 45.0)
           (-30.0 30.0)
           (-30.0 30.0)
  end
  begin
     id 17 
     name lclavicle
     direction 0.945646 0.319323 -0.0615358  
     length 4.0076  
     axis 0 0 0   XYZ
    dof ry rz
    limits (-20.0 10.0)
           (0.0 20.0)
  end
  begin
     id 18 
     name lhumerus
     direction 1 -4.48967e-011 -2.79996e-027   
     length 5.64147   
     axis 180 -30 -90   XYZ
    dof rx ry rz
    limits (-60.0 90.0)
           (-90.0 90.0)
           (-90.0 90.0)
  end
  begin
     id 19
     name lradius
     direction 1 -4.48976e-011 -9.5122e-027   
     length 2.86444   
     axis 180 -30 -90   XYZ
    dof rx
    limits (-10.0 170.0)
  end
  begin
     id 20
     name lwrist
     direction 1 -4.48983e-011 -1.24047e-026   
     length 1.43222   
     axis 9.05591e-015 90 90   XYZ
    dof ry
    limits (-180.0 0.0)
 end
  begin
     id 21 
     name lhand
     direction 1 -4.4892e-011 -2.48094e-026   
     length 0.722123   
     axis 1.58305e-014 90 90   XYZ
    dof rx rz
    limits (-90.0 90.0)
           (-45.0 45.0)
  end
  begin
     id 22 
     name lfingers
     direction 1 -4.48895e-011 -4.96187e-026   
     length 0.582194   
     axis 3.1661e-014 90 90   XYZ
    dof rx
    limits (0.0 90.0)
  end
  begin
     id 23
     name lthumb
     direction 0.707107 -6.34961e-011 0.707107   
     length 0.835918   
     axis -90 45 2.85299e-015   XYZ
    dof rx rz
    limits (-45.0 45.0)
           (-45.0 45.0)
  end
  begin
     id 24 
     name rclavicle
     direction -0.932635 0.324218 -0.15835   
     length 3.65819  
     axis 0 0 0   XYZ 
    dof ry rz
    limits (-10.0 20.0)
           (-20.0 0.0)
  end
  begin
     id 25 
     name rhumerus
     direction -1 -4.48965e-011 -4.02296e-027  
     length 5.44729   
     axis 180 30 90   XYZ
    dof rx ry rz
    limits (-90.0 60.0)
           (-90.0 90.0)
           (-90.0 90.0)
  end
  begin
     id 26 
     name rradius
     direction -1 -4.48957e-011 -8.81087e-027   
     length 3.08821   
     axis 180 30 90   XYZ
    dof rx
    limits (-10.0 170.0)
  end
  begin
     id 27 
     name rwrist
     direction -1 -4.49015e-011 -1.24047e-026   
     length 1.5441   
     axis 9.05591e-015 -90 -90   XYZ
    dof ry
    limits (-180.0 0.0)
  end
  begin
     id 28
     name rhand
     direction -1 -4.4891e-011 -2.48094e-026   
     length 0.821049   
     axis 1.58305e-014 -90 -90   XYZ
    dof rx rz
    limits (-90.0 90.0)
           (-45.0 45.0)
  end
  begin
     id 29
     name rfingers
     direction -1 -4.48985e-011 -4.96187e-026   
     length 0.661951   
     axis 3.1661e-014 -90 -90   XYZ
    dof rx
    limits (0.0 90.0)
  end
  begin
     id 30
     name rthumb
     direction -0.707107 -6.34906e-011 0.707107   
     length 0.950433   
     axis -90 -45 -2.85299e-015   XYZ
    dof rx rz
    limits (-45.0 45.0)
           (-45.0 45.0)
  end
:hierarchy
  begin
    root lhipjoint rhipjoint lowerback
    lhipjoint lfemur
    lfemur ltibia
    ltibia lfoot
    lfoot ltoes
    rhipjoint rfemur
    rfemur rtibia
    rtibia rfoot
    rfoot rtoes
    lowerback upperback
    upperback thorax
    thorax lowerneck lclavicle rclavicle
    lowerneck upperneck
    upperneck head
    lclavicle lhumerus
    lhumerus lradius
    lradius lwrist
    lwrist lhand lthumb
    lhand lfingers
    rclavicle rhumerus
    rhumerus rradius
    rradius rwrist
    rwrist rhand rthumb
    rhand rfingers
  end

#!OML:ASF F:\VICON\USERDATA\INSTALL\rory3\rory3.ASF
:FULLY-SPECIFIED
:DEGREES
224
root 3.15522 17.6889 0.122017 -165.288 88.7099 -162.743
lowerback 8.28864 -0.428425 2.85961
upperback -3.06831 -0.290002 -0.684048
thorax -7.92021 -0.30292 -2.28925
lowerneck -3.41499 -5.11599 -4.84928
upperneck -1.23578 -6.62405 9.03683
head 0.719212 -3.21333 3.64679
rclavicle -3.37313e-015 3.67752e-015
rhumerus -5.34066 24.651 -35.2958
rradius 142.331
rwrist -54.8544
rhand 22.2889 19.1506
rfingers 7.12502
rthumb 46.6611 -3.66348
lclavicle -3.37313e-015 3.67752e-015
lhumerus -3.41872 -31.6165 50.8739
lradius 137.771
lwrist 94.1001
lhand 17.8365 27.2282
lfingers 7.12502
lthumb 42.5145 51.6435
rfemur 2.91624 5.98986 19.2231
rtibia 13.9076
rfoot -20.7879 -12.7207
rtoes -5.8006
lfemur 1.60625 1.13167 -15.8693
ltibia 10.5615
lfoot -9.54801 -2.78435
ltoes -2.67234
225
root 3.15435 17.6886 0.121342 -164.319 88.6786 -161.758
lowerback 8.29083 -0.427164 2.88736
upperback -3.05357 -0.285215 -0.682152
thorax -7.90559 -0.301577 -2.30358
lowerneck -3.47371 -5.13768 -4.84814
upperneck -1.17416 -6.65559 9.04343
head 0.752065 -3.22679 3.64559
rclavicle 7.82715e-016 -3.67752e-015
rhumerus -5.36633 24.5416 -35.3073
rradius 142.348
rwrist -54.8221
rhand 22.2809 19.0464
rfingers 7.12502
rthumb 46.6537 -3.77084
lclavicle 7.82715e-016 -3.67752e-015
lhumerus -3.42718 -31.7015 50.8831
lradius 137.79
lwrist 93.9312
lhand 17.7583 27.0897
lfingers 7.12502
lthumb 42.4414 51.5301
rfemur 2.95049 5.96575 19.2515
rtibia 13.8896
rfoot -20.8407 -12.6408
rtoes -5.35189
lfemur 1.59737 1.10592 -15.8398
ltibia 10.5922
lfoot -9.56402 -2.74875
ltoes -3.0732
226
root 3.15366 17.6883 0.120458 -162.005 88.6338 -159.417
lowerback 8.29432 -0.443478 2.94118
upperback -3.03909 -0.29917 -0.656647
thorax -7.89329 -0.310057 -2.3048
lowerneck -3.49141 -5.15612 -4.83739
upperneck -1.15714 -6.68147 9.00821
head 0.760628 -3.23953 3.62979
rclavicle 1.06847e-015 -3.18055e-015
rhumerus -5.34312 24.496 -35.322
rradius 142.381
rwrist -54.8314
rhand 22.1652 18.9317
rfingers 7.12502
rthumb 46.5465 -3.93174
lclavicle 1.06847e-015 -3.18055e-015
lhumerus -3.49869 -31.7001 50.9318
lradius 137.789
lwrist 93.9834
lhand 17.8173 27.1575
lfingers 7.12502
lthumb 42.4966 51.579
rfemur 2.98071 5.93859 19.3256
rtibia 13.886
rfoot -20.8738 -12.5984
rtoes -5.40253
lfemur 1.60625 1.07722 -15.765
ltibia 10.6189
lfoot -9.57034 -2.77358
ltoes -3.08398
227
root 3.15314 17.688 0.120892 -160.667 88.6133 -158.079
lowerback 8.24812 -0.441484 2.96297
upperback -3.0196 -0.295155 -0.648782
thorax -7.84541 -0.307988 -2.30932
lowerneck -3.49755 -5.19397 -4.78526
upperneck -1.18115 -6.73201 8.94958
head 0.753036 -3.26554 3.59796
rclavicle -8.01351e-016 -6.85807e-015
rhumerus -5.39087 24.4521 -35.3514
rradius 142.442
rwrist -54.8662
rhand 22.1696 18.8128
rfingers 7.12502
rthumb 46.5506 -4.04888
lclavicle -8.01351e-016 -6.85807e-015
lhumerus -3.55881 -31.6587 51.0143
lradius 137.78
lwrist 94.1593
lhand 17.786 27.2499
lfingers 7.12502
lthumb 42.4673 51.6814
rfemur 2.98613 5.92808 19.3786
rtibia 13.8742
rfoot -20.8459 -12.604
rtoes -5.36407
lfemur 1.60187 1.06816 -15.7187
ltibia 10.6491
lfoot -9.58287 -2.82707
ltoes -2.60808
228
root 3.15251 17.6868 0.120584 -160.623 88.6118 -158.016
lowerback 8.22989 -0.440768 2.95411
upperback -3.02669 -0.294873 -0.639102
thorax -7.84226 -0.307127 -2.29413
lowerneck -3.41259 -5.20199 -4.81234
upperneck -1.19321 -6.74428 8.93104
head 0.735329 -3.27429 3.59867
rclavicle 3.50979e-015 -8.24956e-015
rhumerus -5.42718 24.4274 -35.3515
rradius 142.486
rwrist -54.9429
rhand 22.271 18.6878
rfingers 7.12502
rthumb 46.6445 -4.13343
lclavicle 3.50979e-015 -8.24956e-015
lhumerus -3.65107 -31.6213 51.1308
lradius 137.816
lwrist 94.4068
lhand 17.808 27.3739
lfingers 7.12502
lthumb 42.4879 51.7984
rfemur 2.99925 5.92756 19.3809
rtibia 13.8951
rfoot -20.8377 -12.6327
rtoes -5.30289
lfemur 1.63678 1.06604 -15.7188
ltibia 10.6285
lfoot -9.60454 -2.8389
ltoes -2.40653
229
root 3.15276 17.6858 0.120192 -160.618 88.6109 -158.012
lowerback 8.20301 -0.438946 2.93122
upperback -3.03757 -0.294352 -0.622358
thorax -7.83795 -0.30525 -2.26359
lowerneck -3.40744 -5.19105 -4.89709
upperneck -1.11501 -6.73298 8.98912
head 0.764795 -3.26737 3.63456
rclavicle -2.54072e-015 4.57205e-015
rhumerus -5.46425 24.4104 -35.3442
rradius 142.483
rwrist -54.9835
rhand 22.3043 18.6189
rfingers 7.12502
rthumb 46.6754 -4.18906
lclavicle -2.54072e-015 4.57205e-015
lhumerus -3.72562 -31.575 51.2631
lradius 137.783
lwrist 94.5107
lhand 18.0302 27.3685
lfingers 7.12502
lthumb 42.6958 51.7211
rfemur 2.97002 5.92798 19.3707
rtibia 13.9413
rfoot -20.8459 -12.6627
rtoes -5.43891
lfemur 1.65355 1.06545 -15.7177
ltibia 10.5901
lfoot -9.61249 -2.82834
ltoes -2.48251
